<?xml version="1.0" encoding="utf-8"?>
<!-- Generator: Adobe Illustrator 22.0.1, SVG Export Plug-In . SVG Version: 6.00 Build 0)  -->
<svg version="1.1" id="logo-falcom-color" xmlns="http://www.w3.org/2000/svg" xmlns:xlink="http://www.w3.org/1999/xlink" x="0px"
	 y="0px" viewBox="0 0 150 35" style="enable-background:new 0 0 150 35;" xml:space="preserve">
<style type="text/css">
	.st0{fill:#FFF23F;}
	.st1{fill:#8CC456;}
	.st2{fill:#54C2F0;}
	.st3{fill:#F09DC1;}
	.st4{fill:#231815;}
	.st5{fill:#FFFFFF;}
</style>
<g id="logo-falcom-color-ver">
	<g id="color2">
		<g>
			<path class="st0" d="M110.5,12.4c0,0-0.2-1.1,1.2-1.1h23.7c0,0,6.5-0.4,7.6,6.5h-7.2c0,0-0.5-0.8-2.2-0.9h-2.2
				c0,0-1.1-0.2-1.1,0.9h-6.8c0,0,0.2-0.8-1-0.9h-4.2c0,0-0.9-0.2-1,0.9h-6.8V12.4z"/>
			<g>
				<rect x="110.5" y="17.8" class="st1" width="6.8" height="7"/>
			</g>
			<g>
				<rect x="123.5" y="17.8" class="st1" width="6.8" height="7"/>
			</g>
			<path class="st1" d="M135.9,17.8c0,0,0.5,0.7,0.5,1.4v5.6h6.8v-5.9c0,0-0.1-0.5-0.1-1.1H135.9z"/>
			<path class="st2" d="M136.3,24.8v7.8c0,0-0.1,0.9,0.9,0.9h4.8c0,0,1.1,0.2,1.1-1v-7.7H136.3z"/>
			<path class="st2" d="M123.5,24.8v7.8c0,0-0.1,0.9,0.9,0.9h4.8c0,0,1.1,0.2,1.1-1v-7.7H123.5z"/>
			<path class="st2" d="M110.5,24.8v7.8c0,0-0.1,0.9,0.9,0.9h4.8c0,0,1.1,0.2,1.1-1v-7.7H110.5z"/>
		</g>
		<g>
			<path class="st0" d="M85.1,17.8c0,0,2.2-7.5,11.5-7.4c0,0,8.1-0.6,11.2,7.4h-7c0,0-1.3-2.5-4.3-2.5c-3,0-4.5,2.5-4.5,2.5H85.1z"
				/>
			<path class="st1" d="M85.1,17.8c0,0-0.8,1.3-0.8,4.2c0,0,0.1,2.2,0.4,2.8h6.8c0,0-0.2-0.5-0.2-2.8c0,0-0.3-2.9,0.8-4.2H85.1z"/>
			<path class="st1" d="M100.8,17.8c0,0,1,0.8,0.8,4c0,0,0.1,2.1-0.2,3h6.8c0,0,0.4-1.8,0.4-2.9c0,0-0.1-2.8-0.8-4.1H100.8z"/>
			<path class="st2" d="M84.6,24.8c0,0,1.7,8.7,11.9,8.7c10.2,0,11.8-8.7,11.8-8.7h-6.8c0,0-1.2,3.8-4.9,3.8c-3.8,0-5.1-3.8-5.1-3.8
				H84.6z"/>
		</g>
		<g>
			<path class="st0" d="M63.6,17.8c0,0,1.6-6.2,8.9-6.7h10.1c0,0,1.2-0.1,1.2,0.9v3.1c0,0,0.2,1.1-1.1,1.1h-6.9c0,0-2.7-0.2-4.1,1.5
				H63.6z"/>
			<path class="st1" d="M71.7,17.8h-8.1c0,0-0.7,0.9-0.7,4.4l0.2,2.6h7.7c0,0-0.5-0.4-0.5-2.7C70.2,22.1,70,19.4,71.7,17.8z"/>
			<path class="st2" d="M63.1,24.8c0,0,0.8,7.7,9.3,8.7h10.4c0,0,1.1,0.2,1.1-1v-3.2c0,0,0.2-0.9-1.2-0.9h-6.9c0,0-3.9,0.1-5-3.5
				H63.1z"/>
		</g>
		<g>
			<path class="st3" d="M55.4,2.7c0,0-1.1-0.2-1.1,1v6.8H61v-7c0,0-0.1-0.8-0.9-0.8H55.4z"/>
			<g>
				<rect x="54.3" y="10.6" class="st0" width="6.7" height="7.2"/>
			</g>
			<g>
				<rect x="54.3" y="17.8" class="st1" width="6.7" height="7"/>
			</g>
			<path class="st2" d="M54.3,24.8v7.6c0,0-0.1,1.1,1,1.1h4.5c0,0,1.2,0.2,1.2-1.1v-7.6H54.3z"/>
		</g>
		<g>
			<path class="st0" d="M44.1,11H32c0,0-1.2-0.5-1.2,1.2V15c0,0-0.3,1.1,1.2,1.1h9.8c0,0,2.3-0.2,3.2,1.8h7.1
				C52.3,17.8,52.1,11.4,44.1,11z"/>
			<path class="st1" d="M45.6,20H36c0,0-5.6-0.2-7,4.8h8c0,0,0.3-0.2,0.7-0.2h7.8v0.2l6.8,0v-6c0,0,0.2-0.5-0.1-1h-7.1
				C45.1,17.8,45.6,18.7,45.6,20z"/>
			<path class="st2" d="M52.3,24.8l-6.8,0v4.1h-7.8c0,0-1.8,0.1-1.8-2.1c0,0-0.2-1.3,1.2-2h-8c0,0-0.3-0.1-0.3,2.1
				c0,0-0.3,6.6,7.8,6.6h14.7c0,0,1.2,0.2,1.2-1V24.8z"/>
		</g>
		<g>
			<path class="st3" d="M27.8,2.4H16.5c0,0-9.2-0.2-11.6,8.2h6.8c0,0,0.2-1.9,4.6-2.5h11.5c0,0,1.1,0.1,1.1-0.8v-4
				C29,3.3,29.1,2.2,27.8,2.4z"/>
			<path class="st0" d="M4.9,10.6c0,0-0.5,0.7-0.5,7.2H29V16c0,0,0.2-1.1-1.2-1.1H11v-1.7c0,0,0-1.8,0.8-2.6H4.9z"/>
			<path class="st1" d="M4.4,17.8H29v1.8c0,0,0.2,1.1-1.2,1.1H11v4.1H4.4V17.8z"/>
			<path class="st2" d="M4.4,24.8v7.5c0,0-0.2,1.2,1.1,1.2h4.3c0,0,1.2,0.3,1.2-1.2v-7.5H4.4z"/>
		</g>
	</g>
	<path id="outline" class="st4" d="M5.3,33.8c-0.7,0-1.2-0.5-1.2-1.2l0,0V14.8
		C4,8.6,6.9,5.4,9.8,3.7l0,0c3-1.6,6-1.7,6.7-1.7l0,0c0.1,0,0.1,0,0.1,0l0,0h11.5c0.7,0,1.2,0.5,1.2,1.2l0,0v4
		c0,0.7-0.5,1.2-1.2,1.2l0,0l-11.7,0c-0.2,0-1.5,0-2.7,0.6l0,0c-1.2,0.6-2.4,1.8-2.4,4.2l0,0v1.2h0.7l0.5,0v0.7h-0.5h-1.4v-1.9
		c0-2.7,1.4-4.2,2.8-4.9l0,0c1.4-0.7,2.8-0.7,3-0.7l0,0c0,0,0,0,0,0l0,0h11.7c0.3,0,0.5-0.2,0.5-0.5l0,0v-4c0-0.3-0.2-0.5-0.5-0.5
		l0,0H16.6c0,0,0,0-0.1,0l0,0c-0.6,0-3.6,0.1-6.3,1.6l0,0C7.4,5.9,4.8,8.9,4.8,14.8l0,0v17.8c0,0.3,0.2,0.5,0.5,0.5l0,0h4.9
		c0.3,0,0.5-0.2,0.5-0.5l0,0V20.3h2h15.4c0.3,0,0.5-0.2,0.5-0.5l0,0v-4c0-0.3-0.2-0.5-0.5-0.5l0,0H12.5v-0.7h15.6
		c0.7,0,1.2,0.5,1.2,1.2l0,0v4c0,0.7-0.5,1.2-1.2,1.2l0,0H12.7l-1.3,0v11.6c0,0.7-0.5,1.2-1.2,1.2l0,0L5.3,33.8L5.3,33.8z
		 M55.2,33.8h4.9v-0.4v-0.4h-4.9l0,0c-0.3,0-0.5-0.2-0.5-0.5v-29l0,0c0-0.3,0.2-0.5,0.5-0.5h4.9l0,0c0.3,0,0.5,0.2,0.5,0.5v29l0,0
		c0,0.3-0.2,0.5-0.5,0.5v0.4v0.4l0,0c0.7,0,1.2-0.5,1.2-1.2v-29l0,0c0-0.7-0.5-1.2-1.2-1.2h-4.9l0,0c-0.7,0-1.2,0.5-1.2,1.2v29l0,0
		C54,33.3,54.5,33.8,55.2,33.8L55.2,33.8z M31.7,32.8c1.8,1,3.9,1.1,5.1,1.1l0,0c0.6,0,0.9,0,0.9,0l13.7,0l0,0
		c0.7,0,1.2-0.5,1.2-1.2V19.1l0,0c0-3.8-1.7-6-3.8-7.1l0,0c-2-1.1-4.3-1.3-5.6-1.3l0,0c-0.5,0-0.9,0-0.9,0l-10.8,0l0,0
		c-0.7,0-1.2,0.5-1.2,1.2v3.3l0,0c0,0.7,0.5,1.2,1.2,1.2h10l0,0c0,0,0.1,0,0.2,0l0,0c0.7,0,3.1,0.1,3.3,3.3h-8.9l0,0
		c-3.8,0-5.9,1.6-6.9,3.3l0,0c-1,1.7-1.1,3.4-1.1,3.8l0,0c0,0,0,0.1,0,0.1l0,0C28.3,30,29.9,31.8,31.7,32.8L31.7,32.8z M29,26.7
		c0-0.6,0.1-6.3,7.3-6.3h9.7V20l0,0c0-2-0.8-3.1-1.7-3.7l0,0c-0.9-0.6-1.9-0.6-2.3-0.6l0,0c-0.1,0-0.2,0-0.2,0l-10,0l0,0
		c-0.3,0-0.5-0.2-0.5-0.5v-3.3l0,0c0-0.3,0.2-0.5,0.5-0.5h10.8l0,0c0,0,0.3,0,0.8,0l0,0c1.2,0,3.4,0.2,5.2,1.2l0,0
		c1.9,1.1,3.4,2.9,3.4,6.5v13.5l0,0c0,0.3-0.2,0.5-0.5,0.5l-13.7,0l0,0c0,0-0.4,0-0.9,0l0,0c-1.1,0-3.1-0.2-4.8-1l0,0
		C30.4,31.3,29,29.7,29,26.7L29,26.7C29,26.8,29,26.8,29,26.7L29,26.7z M42.4,29.2l3.4,0v-4.9h-3.1h-4.9l0,0c0,0,0,0,0,0l0,0
		c-0.1,0-0.7,0-1.3,0.3l0,0c-0.6,0.3-1.1,1-1.1,2.2l0,0c0,1.1,0.4,1.7,0.9,2.1l0,0c0.5,0.3,1,0.4,1.2,0.4l0,0c0.1,0,0.1,0,0.1,0
		H42.4L42.4,29.2z M37.7,28.9l0-0.4l0,0c0,0,0,0-0.1,0l0,0c-0.3,0-1.4,0-1.4-1.7l0,0c0-1.8,1.4-1.8,1.6-1.8v0l4.9,0h2.4v3.5h-2.7
		l-4.8,0V28.9L37.7,28.9z M72.3,33.8l10.6,0l0,0c0.7,0,1.2-0.5,1.2-1.2v-3.4l0,0c0-0.7-0.5-1.2-1.2-1.2h-7.4l0,0c0,0-1.2,0-2.5-0.8
		l0,0c-1.2-0.7-2.5-2.1-2.5-5.1l0,0c0-5.3,4.2-5.4,5-5.5l0,0c0.1,0,0.1,0,0.1,0l0-0.4v0.4h7.2l0,0c0.7,0,1.2-0.5,1.2-1.2V12l0,0
		c0-0.7-0.5-1.2-1.2-1.2H72.5l0,0c0,0-2.5,0-5,1.5l0,0c-2.5,1.4-5,4.4-5,10l0,0c0,5.6,2.4,8.6,4.9,10.1l0,0
		C69.9,33.8,72.3,33.8,72.3,33.8L72.3,33.8z M71.1,11.6c0.9-0.2,1.4-0.2,1.4-0.2h10.4l0,0c0.3,0,0.5,0.2,0.5,0.5l0,3.4l0,0
		c0,0.3-0.2,0.5-0.5,0.5h-7.2l0,0c0,0-0.1,0-0.1,0l0,0c-0.4,0-1.9,0.1-3.2,0.9l0,0c-1.3,0.8-2.6,2.4-2.6,5.3l0,0
		c0,3.2,1.4,4.9,2.8,5.7l0,0c1.4,0.8,2.8,0.9,2.8,0.9h7.4l0,0c0.3,0,0.5,0.2,0.5,0.5v3.4l0,0c0,0.3-0.2,0.5-0.5,0.5H72.4l0,0
		c0,0-2.3-0.1-4.5-1.5l0,0c-2.3-1.4-4.5-4.1-4.6-9.5l0,0c0-5.4,2.3-8,4.6-9.3l0,0C69,12.2,70.2,11.8,71.1,11.6L71.1,11.6z
		 M95.8,33.8h1.4l0,0c6.6,0,11.9-5.3,11.9-11.9l0,0c0-6.6-5.3-11.9-11.9-11.9h-1.4l0,0c-6.6,0-11.9,5.3-11.9,11.9l0,0
		C83.9,28.5,89.2,33.8,95.8,33.8v-0.4v-0.4l0,0c-6.2,0-11.2-5-11.2-11.2l0,0c0-6.2,5-11.2,11.2-11.2h1.4l0,0c6.2,0,11.2,5,11.2,11.2
		l0,0c0,6.2-5,11.2-11.2,11.2l-1.4,0v0.4V33.8L95.8,33.8z M91,23.4c0,3,2.5,5.5,5.5,5.5v-0.4v-0.4l0,0c-2.6,0-4.8-2.1-4.8-4.8l0-2.9
		l0,0c0-2.6,2.1-4.8,4.8-4.8l0,0c2.6,0,4.8,2.1,4.8,4.8v2.9l0,0c0,2.6-2.1,4.8-4.8,4.8v0.4v0.4l0,0c3,0,5.5-2.5,5.5-5.5l0-2.9l0,0
		c0-3-2.5-5.5-5.5-5.5l0,0c-3,0-5.5,2.5-5.5,5.5V23.4L91,23.4z M137.2,33.8h5.1l0,0c0.7,0,1.2-0.5,1.2-1.2V19.3l0,0
		c0-3.9-1.7-6.1-3.5-7.2l0,0c-1.8-1.1-3.8-1.2-4.5-1.2l0,0c-0.1,0-0.2,0-0.2,0h-23.9l0,0c-0.7,0-1.2,0.5-1.2,1.2v20.4l0,0
		c0,0.7,0.5,1.2,1.2,1.2h5.1l0,0c0.7,0,1.2-0.5,1.2-1.2V17.8l0,0c0-0.3,0.2-0.5,0.5-0.5h4.4l0,0c0.3,0,0.5,0.2,0.5,0.5v14.9l0,0
		c0,0.7,0.5,1.2,1.2,1.2h5.1l0,0c0.7,0,1.2-0.5,1.2-1.2v-13v-1.9l0,0c0-0.3,0.2-0.5,0.5-0.5h2.4v-0.4v-0.4h-2.4l0,0
		c-0.7,0-1.2,0.5-1.2,1.2v1.9v13l0,0c0,0.3-0.2,0.5-0.5,0.5h-5.1l0,0c-0.3,0-0.5-0.2-0.5-0.5V17.8l0,0c0-0.7-0.6-1.2-1.2-1.2h-4.4
		l0,0c-0.7,0-1.2,0.5-1.2,1.2v14.9l0,0c0,0.3-0.2,0.5-0.5,0.5h-5.1l0,0c-0.3,0-0.5-0.2-0.5-0.5l0-20.4l0,0c0-0.3,0.2-0.5,0.5-0.5
		l23.9,0l0,0c0,0,0.1,0,0.2,0l0,0c1.2,0,7.3,0.3,7.3,7.6v13.3l0,0c0,0.3-0.2,0.5-0.5,0.5h-5.1l0,0c-0.3,0-0.5-0.2-0.5-0.5V20l0,0
		c0-0.1,0-0.3,0-0.5l0,0c0-0.5-0.1-1.2-0.5-1.8l0,0c-0.4-0.6-1.3-1.1-2.6-1.1v0.4v0.4l0,0c2.2,0,2.3,1.4,2.4,2.2l0,0
		c0,0.3,0,0.4,0,0.4l0,0v12.7l0,0C136,33.3,136.5,33.8,137.2,33.8L137.2,33.8z"/>
	<path id="path" class="st5" d="M138.6,7.7c0-2.4,1.9-4.3,4.3-4.3l0,0c2.4,0,4.3,1.9,4.3,4.3l0,0
		c0,2.4-1.9,4.3-4.3,4.3l0,0v-0.3v-0.3c2,0,3.6-1.6,3.6-3.6l0,0c0-2-1.6-3.6-3.6-3.6l0,0c-2,0-3.6,1.6-3.6,3.6l0,0
		c0,2,1.6,3.6,3.6,3.6l0,0v0.3V12C140.5,12,138.6,10.1,138.6,7.7L138.6,7.7z M141.7,7.6h1.6c0.3,0,0.6-0.1,0.8-0.2
		c0.2-0.1,0.3-0.4,0.3-0.7c0-0.4-0.1-0.6-0.4-0.7c-0.1-0.1-0.3-0.1-0.6-0.1h-1.7V7.6z M141,10.3V5.3h2.3c0.4,0,0.7,0.1,1,0.2
		c0.5,0.2,0.7,0.6,0.7,1.2c0,0.3-0.1,0.6-0.2,0.7c-0.1,0.2-0.3,0.3-0.5,0.5c0.2,0.1,0.3,0.2,0.4,0.3c0.1,0.1,0.2,0.3,0.2,0.6l0,0.7
		c0,0.2,0,0.3,0,0.4c0,0.2,0.1,0.3,0.2,0.3v0.1h-0.8c0,0,0-0.1-0.1-0.2c0-0.1,0-0.2,0-0.4l0-0.8c0-0.3-0.1-0.6-0.4-0.7
		c-0.1-0.1-0.3-0.1-0.6-0.1h-1.6v2.2H141z"/>
</g>
</svg>
